<svg xmlns="http://www.w3.org/2000/svg" xmlns:xlink="http://www.w3.org/1999/xlink" width="1080" zoomAndPan="magnify" viewBox="0 0 810 809.999993" height="1080" preserveAspectRatio="xMidYMid meet" version="1.0"><defs><g/><clipPath id="81aa9bbb88"><path d="M 115.851562 220.6875 L 189.582031 220.6875 L 189.582031 294.414062 L 115.851562 294.414062 Z M 115.851562 220.6875 " clip-rule="nonzero"/></clipPath><clipPath id="9ed490604a"><path d="M 115.851562 220.691406 L 189.351562 220.691406 L 189.351562 294.1875 L 115.851562 294.1875 Z M 115.851562 220.691406 " clip-rule="nonzero"/></clipPath><clipPath id="42de0ecc80"><path d="M 115.851562 294.414062 L 189.582031 294.414062 L 189.582031 368.136719 L 115.851562 368.136719 Z M 115.851562 294.414062 " clip-rule="nonzero"/></clipPath><clipPath id="68ccea793c"><path d="M 115.851562 294.414062 L 189.351562 294.414062 L 189.351562 367.914062 L 115.851562 367.914062 Z M 115.851562 294.414062 " clip-rule="nonzero"/></clipPath><clipPath id="c5fedfd073"><path d="M 337.042969 368.136719 L 410.769531 368.136719 L 410.769531 441.863281 L 337.042969 441.863281 Z M 337.042969 368.136719 " clip-rule="nonzero"/></clipPath><clipPath id="5b84de8112"><path d="M 337.042969 368.140625 L 410.542969 368.140625 L 410.542969 441.636719 L 337.042969 441.636719 Z M 337.042969 368.140625 " clip-rule="nonzero"/></clipPath><clipPath id="a5b59736c9"><path d="M 337.042969 220.6875 L 410.769531 220.6875 L 410.769531 294.414062 L 337.042969 294.414062 Z M 337.042969 220.6875 " clip-rule="nonzero"/></clipPath><clipPath id="78f8add371"><path d="M 337.042969 220.691406 L 410.542969 220.691406 L 410.542969 294.1875 L 337.042969 294.1875 Z M 337.042969 220.691406 " clip-rule="nonzero"/></clipPath><clipPath id="3181db1836"><path d="M 337.042969 294.414062 L 410.769531 294.414062 L 410.769531 368.136719 L 337.042969 368.136719 Z M 337.042969 294.414062 " clip-rule="nonzero"/></clipPath><clipPath id="8cb2a19012"><path d="M 337.042969 294.414062 L 410.542969 294.414062 L 410.542969 367.914062 L 337.042969 367.914062 Z M 337.042969 294.414062 " clip-rule="nonzero"/></clipPath><clipPath id="b9e35e08ba"><path d="M 263.3125 441.863281 L 337.042969 441.863281 L 337.042969 515.585938 L 263.3125 515.585938 Z M 263.3125 441.863281 " clip-rule="nonzero"/></clipPath><clipPath id="702ac50a27"><path d="M 263.3125 441.863281 L 336.8125 441.863281 L 336.8125 515.363281 L 263.3125 515.363281 Z M 263.3125 441.863281 " clip-rule="nonzero"/></clipPath><clipPath id="9446132b94"><path d="M 115.851562 441.863281 L 189.582031 441.863281 L 189.582031 515.585938 L 115.851562 515.585938 Z M 115.851562 441.863281 " clip-rule="nonzero"/></clipPath><clipPath id="96fd750e33"><path d="M 115.851562 441.863281 L 189.351562 441.863281 L 189.351562 515.363281 L 115.851562 515.363281 Z M 115.851562 441.863281 " clip-rule="nonzero"/></clipPath><clipPath id="d2aeab33b8"><path d="M 115.851562 368.136719 L 189.582031 368.136719 L 189.582031 441.863281 L 115.851562 441.863281 Z M 115.851562 368.136719 " clip-rule="nonzero"/></clipPath><clipPath id="591ae3ebbd"><path d="M 115.851562 368.140625 L 189.351562 368.140625 L 189.351562 441.636719 L 115.851562 441.636719 Z M 115.851562 368.140625 " clip-rule="nonzero"/></clipPath><clipPath id="4a17399d5a"><path d="M 263.3125 220.6875 L 337.042969 220.6875 L 337.042969 294.414062 L 263.3125 294.414062 Z M 263.3125 220.6875 " clip-rule="nonzero"/></clipPath><clipPath id="80d77c7a7c"><path d="M 263.3125 220.691406 L 336.8125 220.691406 L 336.8125 294.1875 L 263.3125 294.1875 Z M 263.3125 220.691406 " clip-rule="nonzero"/></clipPath><clipPath id="79d24f1839"><path d="M 189.582031 220.6875 L 263.3125 220.6875 L 263.3125 294.414062 L 189.582031 294.414062 Z M 189.582031 220.6875 " clip-rule="nonzero"/></clipPath><clipPath id="617a5a18c9"><path d="M 189.582031 220.691406 L 263.082031 220.691406 L 263.082031 294.1875 L 189.582031 294.1875 Z M 189.582031 220.691406 " clip-rule="nonzero"/></clipPath><clipPath id="4bedaf5279"><path d="M 115.851562 515.585938 L 189.582031 515.585938 L 189.582031 589.3125 L 115.851562 589.3125 Z M 115.851562 515.585938 " clip-rule="nonzero"/></clipPath><clipPath id="68648eba15"><path d="M 115.851562 515.589844 L 189.351562 515.589844 L 189.351562 589.085938 L 115.851562 589.085938 Z M 115.851562 515.589844 " clip-rule="nonzero"/></clipPath><clipPath id="e7da1f52e2"><path d="M 189.582031 515.585938 L 263.3125 515.585938 L 263.3125 589.3125 L 189.582031 589.3125 Z M 189.582031 515.585938 " clip-rule="nonzero"/></clipPath><clipPath id="0a6fc5d516"><path d="M 189.582031 515.589844 L 263.082031 515.589844 L 263.082031 589.085938 L 189.582031 589.085938 Z M 189.582031 515.589844 " clip-rule="nonzero"/></clipPath><clipPath id="fa8b856724"><path d="M 244.878906 349.707031 L 281.742188 349.707031 L 281.742188 386.570312 L 244.878906 386.570312 Z M 244.878906 349.707031 " clip-rule="nonzero"/></clipPath><clipPath id="384dd36377"><path d="M 244.878906 349.707031 L 281.628906 349.707031 L 281.628906 386.457031 L 244.878906 386.457031 Z M 244.878906 349.707031 " clip-rule="nonzero"/></clipPath></defs><g clip-path="url(#81aa9bbb88)"><path fill="#013984" d="M 115.851562 220.6875 L 189.578125 220.6875 L 189.578125 294.414062 L 115.851562 294.414062 Z M 115.851562 220.6875 " fill-opacity="1" fill-rule="nonzero"/></g><g clip-path="url(#9ed490604a)"><path stroke-linecap="butt" transform="matrix(0.75, 0, 0, 0.75, 115.851684, 220.689926)" fill="none" stroke-linejoin="miter" d="M -0.000162096 0.00197407 L 98.296712 0.00197407 L 98.296712 98.288431 L -0.000162096 98.288431 Z M -0.000162096 0.00197407 " stroke="#004aad" stroke-width="2" stroke-opacity="1" stroke-miterlimit="4"/></g><g clip-path="url(#42de0ecc80)"><path fill="#013984" d="M 115.851562 294.414062 L 189.578125 294.414062 L 189.578125 368.136719 L 115.851562 368.136719 Z M 115.851562 294.414062 " fill-opacity="1" fill-rule="nonzero"/></g><g clip-path="url(#68ccea793c)"><path stroke-linecap="butt" transform="matrix(0.75, 0, 0, 0.75, 115.851684, 294.414936)" fill="none" stroke-linejoin="miter" d="M -0.000162096 -0.00116518 L 98.296712 -0.00116518 L 98.296712 98.2905 L -0.000162096 98.2905 Z M -0.000162096 -0.00116518 " stroke="#004aad" stroke-width="2" stroke-opacity="1" stroke-miterlimit="4"/></g><g clip-path="url(#c5fedfd073)"><path fill="#013984" d="M 337.042969 368.136719 L 410.765625 368.136719 L 410.765625 441.863281 L 337.042969 441.863281 Z M 337.042969 368.136719 " fill-opacity="1" fill-rule="nonzero"/></g><g clip-path="url(#5b84de8112)"><path stroke-linecap="butt" transform="matrix(0.75, 0, 0, 0.75, 337.041227, 368.139933)" fill="none" stroke-linejoin="miter" d="M 0.00232294 0.000923094 L 98.299197 0.000923094 L 98.299197 98.292588 L 0.00232294 98.292588 Z M 0.00232294 0.000923094 " stroke="#004aad" stroke-width="2" stroke-opacity="1" stroke-miterlimit="4"/></g><g clip-path="url(#a5b59736c9)"><path fill="#013984" d="M 337.042969 220.6875 L 410.765625 220.6875 L 410.765625 294.414062 L 337.042969 294.414062 Z M 337.042969 220.6875 " fill-opacity="1" fill-rule="nonzero"/></g><g clip-path="url(#78f8add371)"><path stroke-linecap="butt" transform="matrix(0.75, 0, 0, 0.75, 337.041227, 220.689926)" fill="none" stroke-linejoin="miter" d="M 0.00232294 0.00197407 L 98.299197 0.00197407 L 98.299197 98.288431 L 0.00232294 98.288431 Z M 0.00232294 0.00197407 " stroke="#004aad" stroke-width="2" stroke-opacity="1" stroke-miterlimit="4"/></g><g clip-path="url(#3181db1836)"><path fill="#013984" d="M 337.042969 294.414062 L 410.765625 294.414062 L 410.765625 368.136719 L 337.042969 368.136719 Z M 337.042969 294.414062 " fill-opacity="1" fill-rule="nonzero"/></g><g clip-path="url(#8cb2a19012)"><path stroke-linecap="butt" transform="matrix(0.75, 0, 0, 0.75, 337.041227, 294.414936)" fill="none" stroke-linejoin="miter" d="M 0.00232294 -0.00116518 L 98.299197 -0.00116518 L 98.299197 98.2905 L 0.00232294 98.2905 Z M 0.00232294 -0.00116518 " stroke="#004aad" stroke-width="2" stroke-opacity="1" stroke-miterlimit="4"/></g><g clip-path="url(#b9e35e08ba)"><path fill="#013984" d="M 263.3125 441.863281 L 337.035156 441.863281 L 337.035156 515.585938 L 263.3125 515.585938 Z M 263.3125 441.863281 " fill-opacity="1" fill-rule="nonzero"/></g><g clip-path="url(#702ac50a27)"><path stroke-linecap="butt" transform="matrix(0.75, 0, 0, 0.75, 263.311368, 441.864958)" fill="none" stroke-linejoin="miter" d="M 0.00150953 -0.00223536 L 98.298383 -0.00223536 L 98.298383 98.28943 L 0.00150953 98.28943 Z M 0.00150953 -0.00223536 " stroke="#004aad" stroke-width="2" stroke-opacity="1" stroke-miterlimit="4"/></g><g clip-path="url(#9446132b94)"><path fill="#013984" d="M 115.851562 441.863281 L 189.578125 441.863281 L 189.578125 515.585938 L 115.851562 515.585938 Z M 115.851562 441.863281 " fill-opacity="1" fill-rule="nonzero"/></g><g clip-path="url(#96fd750e33)"><path stroke-linecap="butt" transform="matrix(0.75, 0, 0, 0.75, 115.851684, 441.864958)" fill="none" stroke-linejoin="miter" d="M -0.000162096 -0.00223536 L 98.296712 -0.00223536 L 98.296712 98.28943 L -0.000162096 98.28943 Z M -0.000162096 -0.00223536 " stroke="#004aad" stroke-width="2" stroke-opacity="1" stroke-miterlimit="4"/></g><g clip-path="url(#d2aeab33b8)"><path fill="#013984" d="M 115.851562 368.136719 L 189.578125 368.136719 L 189.578125 441.863281 L 115.851562 441.863281 Z M 115.851562 368.136719 " fill-opacity="1" fill-rule="nonzero"/></g><g clip-path="url(#591ae3ebbd)"><path stroke-linecap="butt" transform="matrix(0.75, 0, 0, 0.75, 115.851684, 368.139933)" fill="none" stroke-linejoin="miter" d="M -0.000162096 0.000923094 L 98.296712 0.000923094 L 98.296712 98.292588 L -0.000162096 98.292588 Z M -0.000162096 0.000923094 " stroke="#004aad" stroke-width="2" stroke-opacity="1" stroke-miterlimit="4"/></g><g clip-path="url(#4a17399d5a)"><path fill="#013984" d="M 263.3125 220.6875 L 337.035156 220.6875 L 337.035156 294.414062 L 263.3125 294.414062 Z M 263.3125 220.6875 " fill-opacity="1" fill-rule="nonzero"/></g><g clip-path="url(#80d77c7a7c)"><path stroke-linecap="butt" transform="matrix(0.75, 0, 0, 0.75, 263.311368, 220.689926)" fill="none" stroke-linejoin="miter" d="M 0.00150953 0.00197407 L 98.298383 0.00197407 L 98.298383 98.288431 L 0.00150953 98.288431 Z M 0.00150953 0.00197407 " stroke="#004aad" stroke-width="2" stroke-opacity="1" stroke-miterlimit="4"/></g><g clip-path="url(#79d24f1839)"><path fill="#013984" d="M 189.582031 220.6875 L 263.304688 220.6875 L 263.304688 294.414062 L 189.582031 294.414062 Z M 189.582031 220.6875 " fill-opacity="1" fill-rule="nonzero"/></g><g clip-path="url(#617a5a18c9)"><path stroke-linecap="butt" transform="matrix(0.75, 0, 0, 0.75, 189.581521, 220.689926)" fill="none" stroke-linejoin="miter" d="M 0.000680117 0.00197407 L 98.297554 0.00197407 L 98.297554 98.288431 L 0.000680117 98.288431 Z M 0.000680117 0.00197407 " stroke="#004aad" stroke-width="2" stroke-opacity="1" stroke-miterlimit="4"/></g><g clip-path="url(#4bedaf5279)"><path fill="#013984" d="M 115.851562 515.585938 L 189.578125 515.585938 L 189.578125 589.3125 L 115.851562 589.3125 Z M 115.851562 515.585938 " fill-opacity="1" fill-rule="nonzero"/></g><g clip-path="url(#68648eba15)"><path stroke-linecap="butt" transform="matrix(0.75, 0, 0, 0.75, 115.851684, 515.589906)" fill="none" stroke-linejoin="miter" d="M -0.000162096 -0.0000830818 L 98.296712 -0.0000830818 L 98.296712 98.291582 L -0.000162096 98.291582 Z M -0.000162096 -0.0000830818 " stroke="#004aad" stroke-width="2" stroke-opacity="1" stroke-miterlimit="4"/></g><g clip-path="url(#e7da1f52e2)"><path fill="#013984" d="M 189.582031 515.585938 L 263.304688 515.585938 L 263.304688 589.3125 L 189.582031 589.3125 Z M 189.582031 515.585938 " fill-opacity="1" fill-rule="nonzero"/></g><g clip-path="url(#0a6fc5d516)"><path stroke-linecap="butt" transform="matrix(0.75, 0, 0, 0.75, 189.581521, 515.589906)" fill="none" stroke-linejoin="miter" d="M 0.000680117 -0.0000830818 L 98.297554 -0.0000830818 L 98.297554 98.291582 L 0.000680117 98.291582 Z M 0.000680117 -0.0000830818 " stroke="#004aad" stroke-width="2" stroke-opacity="1" stroke-miterlimit="4"/></g><g clip-path="url(#fa8b856724)"><path fill="#013984" d="M 244.878906 349.707031 L 281.742188 349.707031 L 281.742188 386.570312 L 244.878906 386.570312 Z M 244.878906 349.707031 " fill-opacity="1" fill-rule="nonzero"/></g><g clip-path="url(#384dd36377)"><path stroke-linecap="butt" transform="matrix(0.75, 0, 0, 0.75, 244.878903, 349.707454)" fill="none" stroke-linejoin="miter" d="M 0.0000040927 -0.000563142 L 49.140635 -0.000563142 L 49.140635 49.134859 L 0.0000040927 49.134859 Z M 0.0000040927 -0.000563142 " stroke="#004aad" stroke-width="2" stroke-opacity="1" stroke-miterlimit="4"/></g><g fill="#000000" fill-opacity="1"><g transform="translate(348.047974, 493.349995)"><g><path d="M 26.609375 -31.296875 L 1.5625 -31.296875 L 1.5625 0 L 7.828125 0 L 7.828125 -12.515625 L 26.609375 -12.515625 C 30.046875 -12.515625 32.859375 -15.34375 32.859375 -18.78125 L 32.859375 -25.046875 C 32.859375 -28.484375 30.046875 -31.296875 26.609375 -31.296875 Z M 7.828125 -18.78125 L 7.828125 -25.046875 L 26.609375 -25.046875 L 26.609375 -18.78125 Z M 7.828125 -18.78125 "/></g></g></g><g fill="#000000" fill-opacity="1"><g transform="translate(382.471068, 493.349995)"><g><path d="M 32.859375 0 L 32.859375 -6.265625 L 20.34375 -6.265625 L 20.34375 -25.046875 L 32.859375 -25.046875 L 32.859375 -31.296875 L 1.5625 -31.296875 L 1.5625 -25.046875 L 14.078125 -25.046875 L 14.078125 -6.265625 L 1.5625 -6.265625 L 1.5625 0 Z M 32.859375 0 "/></g></g></g><g fill="#000000" fill-opacity="1"><g transform="translate(416.894162, 493.349995)"><g><path d="M 32.859375 -31.296875 L 26.609375 -31.296875 L 26.609375 -28.171875 L 17.21875 -18.78125 L 7.828125 -28.171875 L 7.828125 -31.296875 L 1.5625 -31.296875 L 1.5625 -26.921875 C 1.5625 -26.0625 1.84375 -25.3125 2.5 -24.65625 L 11.5 -15.65625 L 2.5 -6.65625 C 1.875 -6.03125 1.5625 -5.25 1.5625 -4.375 L 1.5625 0 L 7.828125 0 L 7.828125 -3.125 L 17.21875 -12.515625 L 26.609375 -3.125 L 26.609375 0 L 32.859375 0 L 32.859375 -4.375 C 32.859375 -5.25 32.546875 -6.03125 31.921875 -6.65625 L 22.921875 -15.65625 L 31.921875 -24.65625 C 32.59375 -25.3125 32.859375 -26.0625 32.859375 -26.921875 Z M 32.859375 -31.296875 "/></g></g></g><g fill="#000000" fill-opacity="1"><g transform="translate(451.317256, 493.349995)"><g><path d="M 32.859375 -31.296875 L 7.828125 -31.296875 C 4.375 -31.296875 1.5625 -28.484375 1.5625 -25.046875 L 1.5625 -6.265625 C 1.5625 -2.8125 4.375 0 7.828125 0 L 32.859375 0 L 32.859375 -6.265625 L 7.828125 -6.265625 L 7.828125 -12.515625 L 32.859375 -12.515625 L 32.859375 -18.78125 L 7.828125 -18.78125 L 7.828125 -25.046875 L 32.859375 -25.046875 Z M 32.859375 -31.296875 "/></g></g></g><g fill="#000000" fill-opacity="1"><g transform="translate(485.74035, 493.349995)"><g><path d="M 32.859375 0 L 32.859375 -6.265625 L 7.828125 -6.265625 L 7.828125 -31.296875 L 1.5625 -31.296875 L 1.5625 -6.265625 C 1.5625 -2.8125 4.375 0 7.828125 0 Z M 32.859375 0 "/></g></g></g><g fill="#000000" fill-opacity="1"><g transform="translate(520.163444, 493.349995)"><g/></g></g><g fill="#000000" fill-opacity="1"><g transform="translate(537.374991, 493.349995)"><g><path d="M 26.609375 -18.78125 L 7.828125 -18.78125 L 7.828125 -31.296875 L 1.5625 -31.296875 L 1.5625 0 L 7.828125 0 L 7.828125 -12.515625 L 26.609375 -12.515625 L 26.609375 0 L 32.859375 0 L 32.859375 -31.296875 L 26.609375 -31.296875 Z M 26.609375 -18.78125 "/></g></g></g><g fill="#000000" fill-opacity="1"><g transform="translate(571.798085, 493.349995)"><g><path d="M 32.859375 0 L 32.859375 -6.265625 L 20.34375 -6.265625 L 20.34375 -25.046875 L 32.859375 -25.046875 L 32.859375 -31.296875 L 1.5625 -31.296875 L 1.5625 -25.046875 L 14.078125 -25.046875 L 14.078125 -6.265625 L 1.5625 -6.265625 L 1.5625 0 Z M 32.859375 0 "/></g></g></g><g fill="#000000" fill-opacity="1"><g transform="translate(606.221179, 493.349995)"><g><path d="M 32.859375 -31.296875 L 7.828125 -31.296875 C 4.375 -31.296875 1.5625 -28.484375 1.5625 -25.046875 L 1.5625 -6.265625 C 1.5625 -2.8125 4.375 0 7.828125 0 L 26.609375 0 C 30.09375 0 32.859375 -2.859375 32.859375 -6.265625 L 32.859375 -18.78125 L 14.078125 -18.78125 L 14.078125 -12.515625 L 26.609375 -12.515625 L 26.609375 -6.265625 L 7.828125 -6.265625 L 7.828125 -25.046875 L 32.859375 -25.046875 Z M 32.859375 -31.296875 "/></g></g></g><g fill="#000000" fill-opacity="1"><g transform="translate(640.644273, 493.349995)"><g><path d="M 26.609375 -18.78125 L 7.828125 -18.78125 L 7.828125 -31.296875 L 1.5625 -31.296875 L 1.5625 0 L 7.828125 0 L 7.828125 -12.515625 L 26.609375 -12.515625 L 26.609375 0 L 32.859375 0 L 32.859375 -31.296875 L 26.609375 -31.296875 Z M 26.609375 -18.78125 "/></g></g></g><g fill="#000000" fill-opacity="1"><g transform="translate(675.071395, 493.349995)"><g/></g></g><g fill="#000000" fill-opacity="1"><g transform="translate(275.654726, 567.074991)"><g><path d="M 26.609375 -31.296875 L 1.5625 -31.296875 L 1.5625 0 L 7.828125 0 L 7.828125 -12.515625 L 26.609375 -12.515625 C 30.046875 -12.515625 32.859375 -15.34375 32.859375 -18.78125 L 32.859375 -25.046875 C 32.859375 -28.484375 30.046875 -31.296875 26.609375 -31.296875 Z M 7.828125 -18.78125 L 7.828125 -25.046875 L 26.609375 -25.046875 L 26.609375 -18.78125 Z M 7.828125 -18.78125 "/></g></g></g><g fill="#000000" fill-opacity="1"><g transform="translate(310.07782, 567.074991)"><g><path d="M 32.859375 -31.296875 L 7.828125 -31.296875 C 4.375 -31.296875 1.5625 -28.484375 1.5625 -25.046875 L 1.5625 -6.265625 C 1.5625 -2.8125 4.375 0 7.828125 0 L 32.859375 0 L 32.859375 -6.265625 L 7.828125 -6.265625 L 7.828125 -12.515625 L 32.859375 -12.515625 L 32.859375 -18.78125 L 7.828125 -18.78125 L 7.828125 -25.046875 L 32.859375 -25.046875 Z M 32.859375 -31.296875 "/></g></g></g><g fill="#000000" fill-opacity="1"><g transform="translate(344.500914, 567.074991)"><g><path d="M 32.859375 -25.046875 C 32.859375 -28.484375 30.046875 -31.296875 26.609375 -31.296875 L 1.5625 -31.296875 L 1.5625 0 L 7.828125 0 L 7.828125 -12.515625 L 11.5 -12.515625 L 23.078125 -0.9375 C 23.703125 -0.3125 24.5 0 25.359375 0 L 32.859375 0 L 32.859375 -6.265625 L 26.609375 -6.265625 L 20.34375 -12.515625 L 26.609375 -12.515625 C 30.046875 -12.515625 32.859375 -15.34375 32.859375 -18.78125 Z M 26.609375 -25.046875 L 26.609375 -18.78125 L 7.828125 -18.78125 L 7.828125 -25.046875 Z M 26.609375 -25.046875 "/></g></g></g><g fill="#000000" fill-opacity="1"><g transform="translate(378.924008, 567.074991)"><g><path d="M 32.859375 -31.296875 L 7.828125 -31.296875 C 4.375 -31.296875 1.5625 -28.484375 1.5625 -25.046875 L 1.5625 0 L 7.828125 0 L 7.828125 -12.515625 L 32.859375 -12.515625 L 32.859375 -18.78125 L 7.828125 -18.78125 L 7.828125 -25.046875 L 32.859375 -25.046875 Z M 32.859375 -31.296875 "/></g></g></g><g fill="#000000" fill-opacity="1"><g transform="translate(413.347102, 567.074991)"><g><path d="M 26.609375 0 C 30.09375 0 32.859375 -2.859375 32.859375 -6.265625 L 32.859375 -25.046875 C 32.859375 -28.484375 30.046875 -31.296875 26.609375 -31.296875 L 7.828125 -31.296875 C 4.375 -31.296875 1.5625 -28.484375 1.5625 -25.046875 L 1.5625 -6.265625 C 1.5625 -2.8125 4.375 0 7.828125 0 Z M 7.828125 -25.046875 L 26.609375 -25.046875 L 26.609375 -6.265625 L 7.828125 -6.265625 Z M 7.828125 -25.046875 "/></g></g></g><g fill="#000000" fill-opacity="1"><g transform="translate(447.770196, 567.074991)"><g><path d="M 32.859375 -25.046875 C 32.859375 -28.484375 30.046875 -31.296875 26.609375 -31.296875 L 1.5625 -31.296875 L 1.5625 0 L 7.828125 0 L 7.828125 -12.515625 L 11.5 -12.515625 L 23.078125 -0.9375 C 23.703125 -0.3125 24.5 0 25.359375 0 L 32.859375 0 L 32.859375 -6.265625 L 26.609375 -6.265625 L 20.34375 -12.515625 L 26.609375 -12.515625 C 30.046875 -12.515625 32.859375 -15.34375 32.859375 -18.78125 Z M 26.609375 -25.046875 L 26.609375 -18.78125 L 7.828125 -18.78125 L 7.828125 -25.046875 Z M 26.609375 -25.046875 "/></g></g></g><g fill="#000000" fill-opacity="1"><g transform="translate(482.19329, 567.074991)"><g><path d="M 7.828125 -31.296875 C 4.375 -31.296875 1.5625 -28.484375 1.5625 -25.046875 L 1.5625 0 L 7.828125 0 L 7.828125 -25.046875 L 14.078125 -25.046875 L 14.078125 0 L 20.34375 0 L 20.34375 -25.046875 L 26.609375 -25.046875 L 26.609375 0 L 32.859375 0 L 32.859375 -25.046875 C 32.859375 -28.484375 30.046875 -31.296875 26.609375 -31.296875 Z M 7.828125 -31.296875 "/></g></g></g><g fill="#000000" fill-opacity="1"><g transform="translate(516.616384, 567.074991)"><g><path d="M 7.828125 -31.296875 C 4.375 -31.296875 1.5625 -28.484375 1.5625 -25.046875 L 1.5625 0 L 7.828125 0 L 7.828125 -12.515625 L 26.609375 -12.515625 L 26.609375 0 L 32.859375 0 L 32.859375 -25.046875 C 32.859375 -28.484375 30.046875 -31.296875 26.609375 -31.296875 Z M 7.828125 -25.046875 L 26.609375 -25.046875 L 26.609375 -18.78125 L 7.828125 -18.78125 Z M 7.828125 -25.046875 "/></g></g></g><g fill="#000000" fill-opacity="1"><g transform="translate(551.039478, 567.074991)"><g><path d="M 7.828125 0 L 7.828125 -20.625 L 27.5 -0.9375 C 28.09375 -0.359375 28.875 0 29.734375 0 C 31.453125 0 32.859375 -1.40625 32.859375 -3.125 L 32.859375 -31.296875 L 26.609375 -31.296875 L 26.609375 -10.6875 L 6.921875 -30.359375 C 6.34375 -30.953125 5.5625 -31.296875 4.6875 -31.296875 C 2.96875 -31.296875 1.5625 -29.890625 1.5625 -28.171875 L 1.5625 0 Z M 7.828125 0 "/></g></g></g><g fill="#000000" fill-opacity="1"><g transform="translate(585.462572, 567.074991)"><g><path d="M 32.859375 0 L 32.859375 -6.265625 L 7.828125 -6.265625 L 7.828125 -25.046875 L 32.859375 -25.046875 L 32.859375 -31.296875 L 7.828125 -31.296875 C 4.375 -31.296875 1.5625 -28.484375 1.5625 -25.046875 L 1.5625 -6.265625 C 1.5625 -2.8125 4.375 0 7.828125 0 Z M 32.859375 0 "/></g></g></g><g fill="#000000" fill-opacity="1"><g transform="translate(619.885666, 567.074991)"><g><path d="M 32.859375 -31.296875 L 7.828125 -31.296875 C 4.375 -31.296875 1.5625 -28.484375 1.5625 -25.046875 L 1.5625 -6.265625 C 1.5625 -2.8125 4.375 0 7.828125 0 L 32.859375 0 L 32.859375 -6.265625 L 7.828125 -6.265625 L 7.828125 -12.515625 L 32.859375 -12.515625 L 32.859375 -18.78125 L 7.828125 -18.78125 L 7.828125 -25.046875 L 32.859375 -25.046875 Z M 32.859375 -31.296875 "/></g></g></g></svg>