<svg xmlns="http://www.w3.org/2000/svg" xmlns:xlink="http://www.w3.org/1999/xlink" width="1080" zoomAndPan="magnify" viewBox="0 0 810 809.999993" height="1080" preserveAspectRatio="xMidYMid meet" version="1.0"><defs><g/><clipPath id="fd90dbc883"><path d="M 257.539062 144.179688 L 331.269531 144.179688 L 331.269531 217.902344 L 257.539062 217.902344 Z M 257.539062 144.179688 " clip-rule="nonzero"/></clipPath><clipPath id="a6c7b903aa"><path d="M 257.539062 144.183594 L 331.039062 144.183594 L 331.039062 217.679688 L 257.539062 217.679688 Z M 257.539062 144.183594 " clip-rule="nonzero"/></clipPath><clipPath id="28110aa32b"><path d="M 257.539062 217.90625 L 331.269531 217.90625 L 331.269531 291.628906 L 257.539062 291.628906 Z M 257.539062 217.90625 " clip-rule="nonzero"/></clipPath><clipPath id="aba41c0954"><path d="M 257.539062 217.90625 L 331.039062 217.90625 L 331.039062 291.40625 L 257.539062 291.40625 Z M 257.539062 217.90625 " clip-rule="nonzero"/></clipPath><clipPath id="9df9a71cb7"><path d="M 478.730469 291.628906 L 552.460938 291.628906 L 552.460938 365.355469 L 478.730469 365.355469 Z M 478.730469 291.628906 " clip-rule="nonzero"/></clipPath><clipPath id="88b5a881b9"><path d="M 478.730469 291.632812 L 552.230469 291.632812 L 552.230469 365.128906 L 478.730469 365.128906 Z M 478.730469 291.632812 " clip-rule="nonzero"/></clipPath><clipPath id="3e2ceb9662"><path d="M 478.730469 144.179688 L 552.460938 144.179688 L 552.460938 217.902344 L 478.730469 217.902344 Z M 478.730469 144.179688 " clip-rule="nonzero"/></clipPath><clipPath id="a133923fc7"><path d="M 478.730469 144.183594 L 552.230469 144.183594 L 552.230469 217.679688 L 478.730469 217.679688 Z M 478.730469 144.183594 " clip-rule="nonzero"/></clipPath><clipPath id="e3e1851aff"><path d="M 478.730469 217.90625 L 552.460938 217.90625 L 552.460938 291.628906 L 478.730469 291.628906 Z M 478.730469 217.90625 " clip-rule="nonzero"/></clipPath><clipPath id="06d0e977d6"><path d="M 478.730469 217.90625 L 552.230469 217.90625 L 552.230469 291.40625 L 478.730469 291.40625 Z M 478.730469 217.90625 " clip-rule="nonzero"/></clipPath><clipPath id="62db233ec8"><path d="M 405 365.355469 L 478.730469 365.355469 L 478.730469 439.078125 L 405 439.078125 Z M 405 365.355469 " clip-rule="nonzero"/></clipPath><clipPath id="865acd5eaf"><path d="M 405 365.355469 L 478.5 365.355469 L 478.5 438.855469 L 405 438.855469 Z M 405 365.355469 " clip-rule="nonzero"/></clipPath><clipPath id="ba157de76f"><path d="M 257.539062 365.355469 L 331.269531 365.355469 L 331.269531 439.078125 L 257.539062 439.078125 Z M 257.539062 365.355469 " clip-rule="nonzero"/></clipPath><clipPath id="ee00fc8c3c"><path d="M 257.539062 365.355469 L 331.039062 365.355469 L 331.039062 438.855469 L 257.539062 438.855469 Z M 257.539062 365.355469 " clip-rule="nonzero"/></clipPath><clipPath id="98a347b063"><path d="M 257.539062 291.628906 L 331.269531 291.628906 L 331.269531 365.355469 L 257.539062 365.355469 Z M 257.539062 291.628906 " clip-rule="nonzero"/></clipPath><clipPath id="e8cb1fcaef"><path d="M 257.539062 291.632812 L 331.039062 291.632812 L 331.039062 365.128906 L 257.539062 365.128906 Z M 257.539062 291.632812 " clip-rule="nonzero"/></clipPath><clipPath id="c114ae7fcf"><path d="M 405 144.179688 L 478.730469 144.179688 L 478.730469 217.902344 L 405 217.902344 Z M 405 144.179688 " clip-rule="nonzero"/></clipPath><clipPath id="cab22f5b84"><path d="M 405 144.183594 L 478.5 144.183594 L 478.5 217.679688 L 405 217.679688 Z M 405 144.183594 " clip-rule="nonzero"/></clipPath><clipPath id="2ab4ca5572"><path d="M 331.269531 144.179688 L 405 144.179688 L 405 217.902344 L 331.269531 217.902344 Z M 331.269531 144.179688 " clip-rule="nonzero"/></clipPath><clipPath id="92df6c67a2"><path d="M 331.269531 144.183594 L 404.769531 144.183594 L 404.769531 217.679688 L 331.269531 217.679688 Z M 331.269531 144.183594 " clip-rule="nonzero"/></clipPath><clipPath id="4c9df7880c"><path d="M 257.539062 439.078125 L 331.269531 439.078125 L 331.269531 512.804688 L 257.539062 512.804688 Z M 257.539062 439.078125 " clip-rule="nonzero"/></clipPath><clipPath id="aa937a0e4c"><path d="M 257.539062 439.082031 L 331.039062 439.082031 L 331.039062 512.578125 L 257.539062 512.578125 Z M 257.539062 439.082031 " clip-rule="nonzero"/></clipPath><clipPath id="7031ff5adb"><path d="M 331.269531 439.078125 L 405 439.078125 L 405 512.804688 L 331.269531 512.804688 Z M 331.269531 439.078125 " clip-rule="nonzero"/></clipPath><clipPath id="bab6ae79a9"><path d="M 331.269531 439.082031 L 404.769531 439.082031 L 404.769531 512.578125 L 331.269531 512.578125 Z M 331.269531 439.082031 " clip-rule="nonzero"/></clipPath><clipPath id="7c3d0aa9de"><path d="M 386.566406 273.632812 L 423.433594 273.632812 L 423.433594 310.496094 L 386.566406 310.496094 Z M 386.566406 273.632812 " clip-rule="nonzero"/></clipPath><clipPath id="b2b3a379be"><path d="M 386.566406 273.636719 L 423.316406 273.636719 L 423.316406 310.382812 L 386.566406 310.382812 Z M 386.566406 273.636719 " clip-rule="nonzero"/></clipPath></defs><g clip-path="url(#fd90dbc883)"><path fill="#013984" d="M 257.539062 144.179688 L 331.265625 144.179688 L 331.265625 217.902344 L 257.539062 217.902344 Z M 257.539062 144.179688 " fill-opacity="1" fill-rule="nonzero"/></g><g clip-path="url(#a6c7b903aa)"><path stroke-linecap="butt" transform="matrix(0.75, 0, 0, 0.75, 257.540292, 144.181669)" fill="none" stroke-linejoin="miter" d="M -0.00163952 0.00256667 L 98.295234 0.00256667 L 98.295234 98.289024 L -0.00163952 98.289024 Z M -0.00163952 0.00256667 " stroke="#004aad" stroke-width="2" stroke-opacity="1" stroke-miterlimit="4"/></g><g clip-path="url(#28110aa32b)"><path fill="#013984" d="M 257.539062 217.90625 L 331.265625 217.90625 L 331.265625 291.628906 L 257.539062 291.628906 Z M 257.539062 217.90625 " fill-opacity="1" fill-rule="nonzero"/></g><g clip-path="url(#aba41c0954)"><path stroke-linecap="butt" transform="matrix(0.75, 0, 0, 0.75, 257.540292, 217.906723)" fill="none" stroke-linejoin="miter" d="M -0.00163952 -0.000630183 L 98.295234 -0.000630183 L 98.295234 98.291035 L -0.00163952 98.291035 Z M -0.00163952 -0.000630183 " stroke="#004aad" stroke-width="2" stroke-opacity="1" stroke-miterlimit="4"/></g><g clip-path="url(#9df9a71cb7)"><path fill="#013984" d="M 478.730469 291.628906 L 552.453125 291.628906 L 552.453125 365.355469 L 478.730469 365.355469 Z M 478.730469 291.628906 " fill-opacity="1" fill-rule="nonzero"/></g><g clip-path="url(#88b5a881b9)"><path stroke-linecap="butt" transform="matrix(0.75, 0, 0, 0.75, 478.729803, 291.631733)" fill="none" stroke-linejoin="miter" d="M 0.000887112 0.0014389 L 98.297761 0.0014389 L 98.297761 98.287896 L 0.000887112 98.287896 Z M 0.000887112 0.0014389 " stroke="#004aad" stroke-width="2" stroke-opacity="1" stroke-miterlimit="4"/></g><g clip-path="url(#3e2ceb9662)"><path fill="#013984" d="M 478.730469 144.179688 L 552.453125 144.179688 L 552.453125 217.902344 L 478.730469 217.902344 Z M 478.730469 144.179688 " fill-opacity="1" fill-rule="nonzero"/></g><g clip-path="url(#a133923fc7)"><path stroke-linecap="butt" transform="matrix(0.75, 0, 0, 0.75, 478.729803, 144.181669)" fill="none" stroke-linejoin="miter" d="M 0.000887112 0.00256667 L 98.297761 0.00256667 L 98.297761 98.289024 L 0.000887112 98.289024 Z M 0.000887112 0.00256667 " stroke="#004aad" stroke-width="2" stroke-opacity="1" stroke-miterlimit="4"/></g><g clip-path="url(#e3e1851aff)"><path fill="#013984" d="M 478.730469 217.90625 L 552.453125 217.90625 L 552.453125 291.628906 L 478.730469 291.628906 Z M 478.730469 217.90625 " fill-opacity="1" fill-rule="nonzero"/></g><g clip-path="url(#06d0e977d6)"><path stroke-linecap="butt" transform="matrix(0.75, 0, 0, 0.75, 478.729803, 217.906723)" fill="none" stroke-linejoin="miter" d="M 0.000887112 -0.000630183 L 98.297761 -0.000630183 L 98.297761 98.291035 L 0.000887112 98.291035 Z M 0.000887112 -0.000630183 " stroke="#004aad" stroke-width="2" stroke-opacity="1" stroke-miterlimit="4"/></g><g clip-path="url(#62db233ec8)"><path fill="#013984" d="M 405 365.355469 L 478.726562 365.355469 L 478.726562 439.078125 L 405 439.078125 Z M 405 365.355469 " fill-opacity="1" fill-rule="nonzero"/></g><g clip-path="url(#865acd5eaf)"><path stroke-linecap="butt" transform="matrix(0.75, 0, 0, 0.75, 404.999983, 365.35673)" fill="none" stroke-linejoin="miter" d="M 0.0000225 -0.00168116 L 98.296896 -0.00168116 L 98.296896 98.289984 L 0.0000225 98.289984 Z M 0.0000225 -0.00168116 " stroke="#004aad" stroke-width="2" stroke-opacity="1" stroke-miterlimit="4"/></g><g clip-path="url(#ba157de76f)"><path fill="#013984" d="M 257.539062 365.355469 L 331.265625 365.355469 L 331.265625 439.078125 L 257.539062 439.078125 Z M 257.539062 365.355469 " fill-opacity="1" fill-rule="nonzero"/></g><g clip-path="url(#ee00fc8c3c)"><path stroke-linecap="butt" transform="matrix(0.75, 0, 0, 0.75, 257.540292, 365.35673)" fill="none" stroke-linejoin="miter" d="M -0.00163952 -0.00168116 L 98.295234 -0.00168116 L 98.295234 98.289984 L -0.00163952 98.289984 Z M -0.00163952 -0.00168116 " stroke="#004aad" stroke-width="2" stroke-opacity="1" stroke-miterlimit="4"/></g><g clip-path="url(#98a347b063)"><path fill="#013984" d="M 257.539062 291.628906 L 331.265625 291.628906 L 331.265625 365.355469 L 257.539062 365.355469 Z M 257.539062 291.628906 " fill-opacity="1" fill-rule="nonzero"/></g><g clip-path="url(#e8cb1fcaef)"><path stroke-linecap="butt" transform="matrix(0.75, 0, 0, 0.75, 257.540292, 291.631733)" fill="none" stroke-linejoin="miter" d="M -0.00163952 0.0014389 L 98.295234 0.0014389 L 98.295234 98.287896 L -0.00163952 98.287896 Z M -0.00163952 0.0014389 " stroke="#004aad" stroke-width="2" stroke-opacity="1" stroke-miterlimit="4"/></g><g clip-path="url(#c114ae7fcf)"><path fill="#013984" d="M 405 144.179688 L 478.726562 144.179688 L 478.726562 217.902344 L 405 217.902344 Z M 405 144.179688 " fill-opacity="1" fill-rule="nonzero"/></g><g clip-path="url(#cab22f5b84)"><path stroke-linecap="butt" transform="matrix(0.75, 0, 0, 0.75, 404.999983, 144.181669)" fill="none" stroke-linejoin="miter" d="M 0.0000225 0.00256667 L 98.296896 0.00256667 L 98.296896 98.289024 L 0.0000225 98.289024 Z M 0.0000225 0.00256667 " stroke="#004aad" stroke-width="2" stroke-opacity="1" stroke-miterlimit="4"/></g><g clip-path="url(#2ab4ca5572)"><path fill="#013984" d="M 331.269531 144.179688 L 404.996094 144.179688 L 404.996094 217.902344 L 331.269531 217.902344 Z M 331.269531 144.179688 " fill-opacity="1" fill-rule="nonzero"/></g><g clip-path="url(#92df6c67a2)"><path stroke-linecap="butt" transform="matrix(0.75, 0, 0, 0.75, 331.270153, 144.181669)" fill="none" stroke-linejoin="miter" d="M -0.000829312 0.00256667 L 98.296044 0.00256667 L 98.296044 98.289024 L -0.000829312 98.289024 Z M -0.000829312 0.00256667 " stroke="#004aad" stroke-width="2" stroke-opacity="1" stroke-miterlimit="4"/></g><g clip-path="url(#4c9df7880c)"><path fill="#013984" d="M 257.539062 439.078125 L 331.265625 439.078125 L 331.265625 512.804688 L 257.539062 512.804688 Z M 257.539062 439.078125 " fill-opacity="1" fill-rule="nonzero"/></g><g clip-path="url(#aa937a0e4c)"><path stroke-linecap="butt" transform="matrix(0.75, 0, 0, 0.75, 257.540292, 439.081606)" fill="none" stroke-linejoin="miter" d="M -0.00163952 0.000567119 L 98.295234 0.000567119 L 98.295234 98.292232 L -0.00163952 98.292232 Z M -0.00163952 0.000567119 " stroke="#004aad" stroke-width="2" stroke-opacity="1" stroke-miterlimit="4"/></g><g clip-path="url(#7031ff5adb)"><path fill="#013984" d="M 331.269531 439.078125 L 404.996094 439.078125 L 404.996094 512.804688 L 331.269531 512.804688 Z M 331.269531 439.078125 " fill-opacity="1" fill-rule="nonzero"/></g><g clip-path="url(#bab6ae79a9)"><path stroke-linecap="butt" transform="matrix(0.75, 0, 0, 0.75, 331.270153, 439.081606)" fill="none" stroke-linejoin="miter" d="M -0.000829312 0.000567119 L 98.296044 0.000567119 L 98.296044 98.292232 L -0.000829312 98.292232 Z M -0.000829312 0.000567119 " stroke="#004aad" stroke-width="2" stroke-opacity="1" stroke-miterlimit="4"/></g><g fill="#000000" fill-opacity="1"><g transform="translate(43.548813, 592.672262)"><g><path d="M 26.609375 -31.296875 L 1.5625 -31.296875 L 1.5625 0 L 7.828125 0 L 7.828125 -12.515625 L 26.609375 -12.515625 C 30.046875 -12.515625 32.859375 -15.34375 32.859375 -18.78125 L 32.859375 -25.046875 C 32.859375 -28.484375 30.046875 -31.296875 26.609375 -31.296875 Z M 7.828125 -18.78125 L 7.828125 -25.046875 L 26.609375 -25.046875 L 26.609375 -18.78125 Z M 7.828125 -18.78125 "/></g></g></g><g fill="#000000" fill-opacity="1"><g transform="translate(77.971908, 592.672262)"><g><path d="M 32.859375 0 L 32.859375 -6.265625 L 20.34375 -6.265625 L 20.34375 -25.046875 L 32.859375 -25.046875 L 32.859375 -31.296875 L 1.5625 -31.296875 L 1.5625 -25.046875 L 14.078125 -25.046875 L 14.078125 -6.265625 L 1.5625 -6.265625 L 1.5625 0 Z M 32.859375 0 "/></g></g></g><g fill="#000000" fill-opacity="1"><g transform="translate(112.395002, 592.672262)"><g><path d="M 32.859375 -31.296875 L 26.609375 -31.296875 L 26.609375 -28.171875 L 17.21875 -18.78125 L 7.828125 -28.171875 L 7.828125 -31.296875 L 1.5625 -31.296875 L 1.5625 -26.921875 C 1.5625 -26.0625 1.84375 -25.3125 2.5 -24.65625 L 11.5 -15.65625 L 2.5 -6.65625 C 1.875 -6.03125 1.5625 -5.25 1.5625 -4.375 L 1.5625 0 L 7.828125 0 L 7.828125 -3.125 L 17.21875 -12.515625 L 26.609375 -3.125 L 26.609375 0 L 32.859375 0 L 32.859375 -4.375 C 32.859375 -5.25 32.546875 -6.03125 31.921875 -6.65625 L 22.921875 -15.65625 L 31.921875 -24.65625 C 32.59375 -25.3125 32.859375 -26.0625 32.859375 -26.921875 Z M 32.859375 -31.296875 "/></g></g></g><g fill="#000000" fill-opacity="1"><g transform="translate(146.818096, 592.672262)"><g><path d="M 32.859375 -31.296875 L 7.828125 -31.296875 C 4.375 -31.296875 1.5625 -28.484375 1.5625 -25.046875 L 1.5625 -6.265625 C 1.5625 -2.8125 4.375 0 7.828125 0 L 32.859375 0 L 32.859375 -6.265625 L 7.828125 -6.265625 L 7.828125 -12.515625 L 32.859375 -12.515625 L 32.859375 -18.78125 L 7.828125 -18.78125 L 7.828125 -25.046875 L 32.859375 -25.046875 Z M 32.859375 -31.296875 "/></g></g></g><g fill="#000000" fill-opacity="1"><g transform="translate(181.24119, 592.672262)"><g><path d="M 32.859375 0 L 32.859375 -6.265625 L 7.828125 -6.265625 L 7.828125 -31.296875 L 1.5625 -31.296875 L 1.5625 -6.265625 C 1.5625 -2.8125 4.375 0 7.828125 0 Z M 32.859375 0 "/></g></g></g><g fill="#000000" fill-opacity="1"><g transform="translate(215.664284, 592.672262)"><g/></g></g><g fill="#000000" fill-opacity="1"><g transform="translate(232.87583, 592.672262)"><g><path d="M 26.609375 -18.78125 L 7.828125 -18.78125 L 7.828125 -31.296875 L 1.5625 -31.296875 L 1.5625 0 L 7.828125 0 L 7.828125 -12.515625 L 26.609375 -12.515625 L 26.609375 0 L 32.859375 0 L 32.859375 -31.296875 L 26.609375 -31.296875 Z M 26.609375 -18.78125 "/></g></g></g><g fill="#000000" fill-opacity="1"><g transform="translate(267.298924, 592.672262)"><g><path d="M 32.859375 0 L 32.859375 -6.265625 L 20.34375 -6.265625 L 20.34375 -25.046875 L 32.859375 -25.046875 L 32.859375 -31.296875 L 1.5625 -31.296875 L 1.5625 -25.046875 L 14.078125 -25.046875 L 14.078125 -6.265625 L 1.5625 -6.265625 L 1.5625 0 Z M 32.859375 0 "/></g></g></g><g fill="#000000" fill-opacity="1"><g transform="translate(301.722018, 592.672262)"><g><path d="M 32.859375 -31.296875 L 7.828125 -31.296875 C 4.375 -31.296875 1.5625 -28.484375 1.5625 -25.046875 L 1.5625 -6.265625 C 1.5625 -2.8125 4.375 0 7.828125 0 L 26.609375 0 C 30.09375 0 32.859375 -2.859375 32.859375 -6.265625 L 32.859375 -18.78125 L 14.078125 -18.78125 L 14.078125 -12.515625 L 26.609375 -12.515625 L 26.609375 -6.265625 L 7.828125 -6.265625 L 7.828125 -25.046875 L 32.859375 -25.046875 Z M 32.859375 -31.296875 "/></g></g></g><g fill="#000000" fill-opacity="1"><g transform="translate(336.145112, 592.672262)"><g><path d="M 26.609375 -18.78125 L 7.828125 -18.78125 L 7.828125 -31.296875 L 1.5625 -31.296875 L 1.5625 0 L 7.828125 0 L 7.828125 -12.515625 L 26.609375 -12.515625 L 26.609375 0 L 32.859375 0 L 32.859375 -31.296875 L 26.609375 -31.296875 Z M 26.609375 -18.78125 "/></g></g></g><g fill="#000000" fill-opacity="1"><g transform="translate(370.568206, 592.672262)"><g/></g></g><g fill="#000000" fill-opacity="1"><g transform="translate(387.779753, 592.672262)"><g><path d="M 26.609375 -31.296875 L 1.5625 -31.296875 L 1.5625 0 L 7.828125 0 L 7.828125 -12.515625 L 26.609375 -12.515625 C 30.046875 -12.515625 32.859375 -15.34375 32.859375 -18.78125 L 32.859375 -25.046875 C 32.859375 -28.484375 30.046875 -31.296875 26.609375 -31.296875 Z M 7.828125 -18.78125 L 7.828125 -25.046875 L 26.609375 -25.046875 L 26.609375 -18.78125 Z M 7.828125 -18.78125 "/></g></g></g><g fill="#000000" fill-opacity="1"><g transform="translate(422.202847, 592.672262)"><g><path d="M 32.859375 -31.296875 L 7.828125 -31.296875 C 4.375 -31.296875 1.5625 -28.484375 1.5625 -25.046875 L 1.5625 -6.265625 C 1.5625 -2.8125 4.375 0 7.828125 0 L 32.859375 0 L 32.859375 -6.265625 L 7.828125 -6.265625 L 7.828125 -12.515625 L 32.859375 -12.515625 L 32.859375 -18.78125 L 7.828125 -18.78125 L 7.828125 -25.046875 L 32.859375 -25.046875 Z M 32.859375 -31.296875 "/></g></g></g><g fill="#000000" fill-opacity="1"><g transform="translate(456.625941, 592.672262)"><g><path d="M 32.859375 -25.046875 C 32.859375 -28.484375 30.046875 -31.296875 26.609375 -31.296875 L 1.5625 -31.296875 L 1.5625 0 L 7.828125 0 L 7.828125 -12.515625 L 11.5 -12.515625 L 23.078125 -0.9375 C 23.703125 -0.3125 24.5 0 25.359375 0 L 32.859375 0 L 32.859375 -6.265625 L 26.609375 -6.265625 L 20.34375 -12.515625 L 26.609375 -12.515625 C 30.046875 -12.515625 32.859375 -15.34375 32.859375 -18.78125 Z M 26.609375 -25.046875 L 26.609375 -18.78125 L 7.828125 -18.78125 L 7.828125 -25.046875 Z M 26.609375 -25.046875 "/></g></g></g><g fill="#000000" fill-opacity="1"><g transform="translate(491.049035, 592.672262)"><g><path d="M 32.859375 -31.296875 L 7.828125 -31.296875 C 4.375 -31.296875 1.5625 -28.484375 1.5625 -25.046875 L 1.5625 0 L 7.828125 0 L 7.828125 -12.515625 L 32.859375 -12.515625 L 32.859375 -18.78125 L 7.828125 -18.78125 L 7.828125 -25.046875 L 32.859375 -25.046875 Z M 32.859375 -31.296875 "/></g></g></g><g fill="#000000" fill-opacity="1"><g transform="translate(525.472129, 592.672262)"><g><path d="M 26.609375 0 C 30.09375 0 32.859375 -2.859375 32.859375 -6.265625 L 32.859375 -25.046875 C 32.859375 -28.484375 30.046875 -31.296875 26.609375 -31.296875 L 7.828125 -31.296875 C 4.375 -31.296875 1.5625 -28.484375 1.5625 -25.046875 L 1.5625 -6.265625 C 1.5625 -2.8125 4.375 0 7.828125 0 Z M 7.828125 -25.046875 L 26.609375 -25.046875 L 26.609375 -6.265625 L 7.828125 -6.265625 Z M 7.828125 -25.046875 "/></g></g></g><g fill="#000000" fill-opacity="1"><g transform="translate(559.895223, 592.672262)"><g><path d="M 32.859375 -25.046875 C 32.859375 -28.484375 30.046875 -31.296875 26.609375 -31.296875 L 1.5625 -31.296875 L 1.5625 0 L 7.828125 0 L 7.828125 -12.515625 L 11.5 -12.515625 L 23.078125 -0.9375 C 23.703125 -0.3125 24.5 0 25.359375 0 L 32.859375 0 L 32.859375 -6.265625 L 26.609375 -6.265625 L 20.34375 -12.515625 L 26.609375 -12.515625 C 30.046875 -12.515625 32.859375 -15.34375 32.859375 -18.78125 Z M 26.609375 -25.046875 L 26.609375 -18.78125 L 7.828125 -18.78125 L 7.828125 -25.046875 Z M 26.609375 -25.046875 "/></g></g></g><g fill="#000000" fill-opacity="1"><g transform="translate(594.318317, 592.672262)"><g><path d="M 7.828125 -31.296875 C 4.375 -31.296875 1.5625 -28.484375 1.5625 -25.046875 L 1.5625 0 L 7.828125 0 L 7.828125 -25.046875 L 14.078125 -25.046875 L 14.078125 0 L 20.34375 0 L 20.34375 -25.046875 L 26.609375 -25.046875 L 26.609375 0 L 32.859375 0 L 32.859375 -25.046875 C 32.859375 -28.484375 30.046875 -31.296875 26.609375 -31.296875 Z M 7.828125 -31.296875 "/></g></g></g><g fill="#000000" fill-opacity="1"><g transform="translate(628.741411, 592.672262)"><g><path d="M 7.828125 -31.296875 C 4.375 -31.296875 1.5625 -28.484375 1.5625 -25.046875 L 1.5625 0 L 7.828125 0 L 7.828125 -12.515625 L 26.609375 -12.515625 L 26.609375 0 L 32.859375 0 L 32.859375 -25.046875 C 32.859375 -28.484375 30.046875 -31.296875 26.609375 -31.296875 Z M 7.828125 -25.046875 L 26.609375 -25.046875 L 26.609375 -18.78125 L 7.828125 -18.78125 Z M 7.828125 -25.046875 "/></g></g></g><g fill="#000000" fill-opacity="1"><g transform="translate(663.164505, 592.672262)"><g><path d="M 7.828125 0 L 7.828125 -20.625 L 27.5 -0.9375 C 28.09375 -0.359375 28.875 0 29.734375 0 C 31.453125 0 32.859375 -1.40625 32.859375 -3.125 L 32.859375 -31.296875 L 26.609375 -31.296875 L 26.609375 -10.6875 L 6.921875 -30.359375 C 6.34375 -30.953125 5.5625 -31.296875 4.6875 -31.296875 C 2.96875 -31.296875 1.5625 -29.890625 1.5625 -28.171875 L 1.5625 0 Z M 7.828125 0 "/></g></g></g><g fill="#000000" fill-opacity="1"><g transform="translate(697.587599, 592.672262)"><g><path d="M 32.859375 0 L 32.859375 -6.265625 L 7.828125 -6.265625 L 7.828125 -25.046875 L 32.859375 -25.046875 L 32.859375 -31.296875 L 7.828125 -31.296875 C 4.375 -31.296875 1.5625 -28.484375 1.5625 -25.046875 L 1.5625 -6.265625 C 1.5625 -2.8125 4.375 0 7.828125 0 Z M 32.859375 0 "/></g></g></g><g fill="#000000" fill-opacity="1"><g transform="translate(732.010693, 592.672262)"><g><path d="M 32.859375 -31.296875 L 7.828125 -31.296875 C 4.375 -31.296875 1.5625 -28.484375 1.5625 -25.046875 L 1.5625 -6.265625 C 1.5625 -2.8125 4.375 0 7.828125 0 L 32.859375 0 L 32.859375 -6.265625 L 7.828125 -6.265625 L 7.828125 -12.515625 L 32.859375 -12.515625 L 32.859375 -18.78125 L 7.828125 -18.78125 L 7.828125 -25.046875 L 32.859375 -25.046875 Z M 32.859375 -31.296875 "/></g></g></g><g clip-path="url(#7c3d0aa9de)"><path fill="#013984" d="M 386.566406 273.632812 L 423.429688 273.632812 L 423.429688 310.496094 L 386.566406 310.496094 Z M 386.566406 273.632812 " fill-opacity="1" fill-rule="nonzero"/></g><g clip-path="url(#b2b3a379be)"><path stroke-linecap="butt" transform="matrix(0.75, 0, 0, 0.75, 386.567533, 273.635896)" fill="none" stroke-linejoin="miter" d="M -0.00150214 0.00109722 L 49.139128 0.00109722 L 49.139128 49.13652 L -0.00150214 49.13652 Z M -0.00150214 0.00109722 " stroke="#004aad" stroke-width="2" stroke-opacity="1" stroke-miterlimit="4"/></g></svg>