<svg xmlns="http://www.w3.org/2000/svg" xmlns:xlink="http://www.w3.org/1999/xlink" width="1080" zoomAndPan="magnify" viewBox="0 0 810 809.999993" height="1080" preserveAspectRatio="xMidYMid meet" version="1.0"><defs><clipPath id="13f70f57f9"><path d="M 186.707031 132.152344 L 295.855469 132.152344 L 295.855469 241.292969 L 186.707031 241.292969 Z M 186.707031 132.152344 " clip-rule="nonzero"/></clipPath><clipPath id="cbc04b959f"><path d="M 186.707031 132.15625 L 295.515625 132.15625 L 295.515625 240.957031 L 186.707031 240.957031 Z M 186.707031 132.15625 " clip-rule="nonzero"/></clipPath><clipPath id="0ba90e8e8a"><path d="M 186.707031 241.292969 L 295.855469 241.292969 L 295.855469 350.429688 L 186.707031 350.429688 Z M 186.707031 241.292969 " clip-rule="nonzero"/></clipPath><clipPath id="6cc50b46e5"><path d="M 186.707031 241.296875 L 295.515625 241.296875 L 295.515625 350.097656 L 186.707031 350.097656 Z M 186.707031 241.296875 " clip-rule="nonzero"/></clipPath><clipPath id="ab295c5776"><path d="M 514.144531 350.429688 L 623.292969 350.429688 L 623.292969 459.570312 L 514.144531 459.570312 Z M 514.144531 350.429688 " clip-rule="nonzero"/></clipPath><clipPath id="7999fba5e8"><path d="M 514.144531 350.433594 L 622.953125 350.433594 L 622.953125 459.234375 L 514.144531 459.234375 Z M 514.144531 350.433594 " clip-rule="nonzero"/></clipPath><clipPath id="d5f50e9a06"><path d="M 514.144531 132.152344 L 623.292969 132.152344 L 623.292969 241.292969 L 514.144531 241.292969 Z M 514.144531 132.152344 " clip-rule="nonzero"/></clipPath><clipPath id="a120ce7816"><path d="M 514.144531 132.15625 L 622.953125 132.15625 L 622.953125 240.957031 L 514.144531 240.957031 Z M 514.144531 132.15625 " clip-rule="nonzero"/></clipPath><clipPath id="7a1bbc569e"><path d="M 514.144531 241.292969 L 623.292969 241.292969 L 623.292969 350.429688 L 514.144531 350.429688 Z M 514.144531 241.292969 " clip-rule="nonzero"/></clipPath><clipPath id="98d0c7cc82"><path d="M 514.144531 241.296875 L 622.953125 241.296875 L 622.953125 350.097656 L 514.144531 350.097656 Z M 514.144531 241.296875 " clip-rule="nonzero"/></clipPath><clipPath id="822200ddd1"><path d="M 405 459.570312 L 514.144531 459.570312 L 514.144531 568.707031 L 405 568.707031 Z M 405 459.570312 " clip-rule="nonzero"/></clipPath><clipPath id="0aa1193800"><path d="M 405 459.574219 L 513.804688 459.574219 L 513.804688 568.375 L 405 568.375 Z M 405 459.574219 " clip-rule="nonzero"/></clipPath><clipPath id="7997af4272"><path d="M 186.707031 459.570312 L 295.855469 459.570312 L 295.855469 568.707031 L 186.707031 568.707031 Z M 186.707031 459.570312 " clip-rule="nonzero"/></clipPath><clipPath id="2767bb3de2"><path d="M 186.707031 459.574219 L 295.515625 459.574219 L 295.515625 568.375 L 186.707031 568.375 Z M 186.707031 459.574219 " clip-rule="nonzero"/></clipPath><clipPath id="401f3c0565"><path d="M 186.707031 350.429688 L 295.855469 350.429688 L 295.855469 459.570312 L 186.707031 459.570312 Z M 186.707031 350.429688 " clip-rule="nonzero"/></clipPath><clipPath id="6b6a4988b3"><path d="M 186.707031 350.433594 L 295.515625 350.433594 L 295.515625 459.234375 L 186.707031 459.234375 Z M 186.707031 350.433594 " clip-rule="nonzero"/></clipPath><clipPath id="5d85e8c681"><path d="M 405 132.152344 L 514.144531 132.152344 L 514.144531 241.292969 L 405 241.292969 Z M 405 132.152344 " clip-rule="nonzero"/></clipPath><clipPath id="51c5125a70"><path d="M 405 132.15625 L 513.804688 132.15625 L 513.804688 240.957031 L 405 240.957031 Z M 405 132.15625 " clip-rule="nonzero"/></clipPath><clipPath id="dbdeeefe5b"><path d="M 295.855469 132.152344 L 405 132.152344 L 405 241.292969 L 295.855469 241.292969 Z M 295.855469 132.152344 " clip-rule="nonzero"/></clipPath><clipPath id="415ba8c146"><path d="M 295.855469 132.15625 L 404.660156 132.15625 L 404.660156 240.957031 L 295.855469 240.957031 Z M 295.855469 132.15625 " clip-rule="nonzero"/></clipPath><clipPath id="51bbe1adf9"><path d="M 186.707031 568.707031 L 295.855469 568.707031 L 295.855469 677.847656 L 186.707031 677.847656 Z M 186.707031 568.707031 " clip-rule="nonzero"/></clipPath><clipPath id="65b64d94f4"><path d="M 186.707031 568.710938 L 295.515625 568.710938 L 295.515625 677.511719 L 186.707031 677.511719 Z M 186.707031 568.710938 " clip-rule="nonzero"/></clipPath><clipPath id="01a7b1f5d4"><path d="M 295.855469 568.707031 L 405 568.707031 L 405 677.847656 L 295.855469 677.847656 Z M 295.855469 568.707031 " clip-rule="nonzero"/></clipPath><clipPath id="c94364e017"><path d="M 295.855469 568.710938 L 404.660156 568.710938 L 404.660156 677.511719 L 295.855469 677.511719 Z M 295.855469 568.710938 " clip-rule="nonzero"/></clipPath><clipPath id="e507a49297"><path d="M 377.714844 323.792969 L 432.285156 323.792969 L 432.285156 378.363281 L 377.714844 378.363281 Z M 377.714844 323.792969 " clip-rule="nonzero"/></clipPath><clipPath id="1971763f7a"><path d="M 377.714844 323.792969 L 432.277344 323.792969 L 432.277344 378.351562 L 377.714844 378.351562 Z M 377.714844 323.792969 " clip-rule="nonzero"/></clipPath></defs><g clip-path="url(#13f70f57f9)"><path fill="#013984" d="M 186.707031 132.152344 L 295.847656 132.152344 L 295.847656 241.292969 L 186.707031 241.292969 Z M 186.707031 132.152344 " fill-opacity="1" fill-rule="nonzero"/></g><g clip-path="url(#cbc04b959f)"><path stroke-linecap="butt" transform="matrix(1.110261, 0, 0, 1.110261, 186.708378, 132.157045)" fill="none" stroke-linejoin="miter" d="M -0.0012131 -0.000716364 L 98.297064 -0.000716364 L 98.297064 98.290524 L -0.0012131 98.290524 Z M -0.0012131 -0.000716364 " stroke="#004aad" stroke-width="1.351034" stroke-opacity="1" stroke-miterlimit="4"/></g><g clip-path="url(#0ba90e8e8a)"><path fill="#013984" d="M 186.707031 241.292969 L 295.847656 241.292969 L 295.847656 350.429688 L 186.707031 350.429688 Z M 186.707031 241.292969 " fill-opacity="1" fill-rule="nonzero"/></g><g clip-path="url(#6cc50b46e5)"><path stroke-linecap="butt" transform="matrix(1.110261, 0, 0, 1.110261, 186.708378, 241.295487)" fill="none" stroke-linejoin="miter" d="M -0.0012131 0.0012501 L 98.297064 0.0012501 L 98.297064 98.288972 L -0.0012131 98.288972 Z M -0.0012131 0.0012501 " stroke="#004aad" stroke-width="1.351034" stroke-opacity="1" stroke-miterlimit="4"/></g><g clip-path="url(#ab295c5776)"><path fill="#013984" d="M 514.144531 350.429688 L 623.285156 350.429688 L 623.285156 459.570312 L 514.144531 459.570312 Z M 514.144531 350.429688 " fill-opacity="1" fill-rule="nonzero"/></g><g clip-path="url(#7999fba5e8)"><path stroke-linecap="butt" transform="matrix(1.110261, 0, 0, 1.110261, 514.145786, 350.434368)" fill="none" stroke-linejoin="miter" d="M -0.00112981 -0.000697332 L 98.297147 -0.000697332 L 98.297147 98.290543 L -0.00112981 98.290543 Z M -0.00112981 -0.000697332 " stroke="#004aad" stroke-width="1.351034" stroke-opacity="1" stroke-miterlimit="4"/></g><g clip-path="url(#d5f50e9a06)"><path fill="#013984" d="M 514.144531 132.152344 L 623.285156 132.152344 L 623.285156 241.292969 L 514.144531 241.292969 Z M 514.144531 132.152344 " fill-opacity="1" fill-rule="nonzero"/></g><g clip-path="url(#a120ce7816)"><path stroke-linecap="butt" transform="matrix(1.110261, 0, 0, 1.110261, 514.145786, 132.157045)" fill="none" stroke-linejoin="miter" d="M -0.00112981 -0.000716364 L 98.297147 -0.000716364 L 98.297147 98.290524 L -0.00112981 98.290524 Z M -0.00112981 -0.000716364 " stroke="#004aad" stroke-width="1.351034" stroke-opacity="1" stroke-miterlimit="4"/></g><g clip-path="url(#7a1bbc569e)"><path fill="#013984" d="M 514.144531 241.292969 L 623.285156 241.292969 L 623.285156 350.429688 L 514.144531 350.429688 Z M 514.144531 241.292969 " fill-opacity="1" fill-rule="nonzero"/></g><g clip-path="url(#98d0c7cc82)"><path stroke-linecap="butt" transform="matrix(1.110261, 0, 0, 1.110261, 514.145786, 241.295487)" fill="none" stroke-linejoin="miter" d="M -0.00112981 0.0012501 L 98.297147 0.0012501 L 98.297147 98.288972 L -0.00112981 98.288972 Z M -0.00112981 0.0012501 " stroke="#004aad" stroke-width="1.351034" stroke-opacity="1" stroke-miterlimit="4"/></g><g clip-path="url(#822200ddd1)"><path fill="#013984" d="M 405 459.570312 L 514.136719 459.570312 L 514.136719 568.707031 L 405 568.707031 Z M 405 459.570312 " fill-opacity="1" fill-rule="nonzero"/></g><g clip-path="url(#0aa1193800)"><path stroke-linecap="butt" transform="matrix(1.110261, 0, 0, 1.110261, 405.000007, 459.572805)" fill="none" stroke-linejoin="miter" d="M -0.00000641741 0.00127346 L 98.29827 0.00127346 L 98.29827 98.288995 L -0.00000641741 98.288995 Z M -0.00000641741 0.00127346 " stroke="#004aad" stroke-width="1.351034" stroke-opacity="1" stroke-miterlimit="4"/></g><g clip-path="url(#7997af4272)"><path fill="#013984" d="M 186.707031 459.570312 L 295.847656 459.570312 L 295.847656 568.707031 L 186.707031 568.707031 Z M 186.707031 459.570312 " fill-opacity="1" fill-rule="nonzero"/></g><g clip-path="url(#2767bb3de2)"><path stroke-linecap="butt" transform="matrix(1.110261, 0, 0, 1.110261, 186.708378, 459.572805)" fill="none" stroke-linejoin="miter" d="M -0.0012131 0.00127346 L 98.297064 0.00127346 L 98.297064 98.288995 L -0.0012131 98.288995 Z M -0.0012131 0.00127346 " stroke="#004aad" stroke-width="1.351034" stroke-opacity="1" stroke-miterlimit="4"/></g><g clip-path="url(#401f3c0565)"><path fill="#013984" d="M 186.707031 350.429688 L 295.847656 350.429688 L 295.847656 459.570312 L 186.707031 459.570312 Z M 186.707031 350.429688 " fill-opacity="1" fill-rule="nonzero"/></g><g clip-path="url(#6b6a4988b3)"><path stroke-linecap="butt" transform="matrix(1.110261, 0, 0, 1.110261, 186.708378, 350.434368)" fill="none" stroke-linejoin="miter" d="M -0.0012131 -0.000697332 L 98.297064 -0.000697332 L 98.297064 98.290543 L -0.0012131 98.290543 Z M -0.0012131 -0.000697332 " stroke="#004aad" stroke-width="1.351034" stroke-opacity="1" stroke-miterlimit="4"/></g><g clip-path="url(#5d85e8c681)"><path fill="#013984" d="M 405 132.152344 L 514.136719 132.152344 L 514.136719 241.292969 L 405 241.292969 Z M 405 132.152344 " fill-opacity="1" fill-rule="nonzero"/></g><g clip-path="url(#51c5125a70)"><path stroke-linecap="butt" transform="matrix(1.110261, 0, 0, 1.110261, 405.000007, 132.157045)" fill="none" stroke-linejoin="miter" d="M -0.00000641741 -0.000716364 L 98.29827 -0.000716364 L 98.29827 98.290524 L -0.00000641741 98.290524 Z M -0.00000641741 -0.000716364 " stroke="#004aad" stroke-width="1.351034" stroke-opacity="1" stroke-miterlimit="4"/></g><g clip-path="url(#dbdeeefe5b)"><path fill="#013984" d="M 295.855469 132.152344 L 404.992188 132.152344 L 404.992188 241.292969 L 295.855469 241.292969 Z M 295.855469 132.152344 " fill-opacity="1" fill-rule="nonzero"/></g><g clip-path="url(#415ba8c146)"><path stroke-linecap="butt" transform="matrix(1.110261, 0, 0, 1.110261, 295.854159, 132.157045)" fill="none" stroke-linejoin="miter" d="M 0.00117966 -0.000716364 L 98.295938 -0.000716364 L 98.295938 98.290524 L 0.00117966 98.290524 Z M 0.00117966 -0.000716364 " stroke="#004aad" stroke-width="1.351034" stroke-opacity="1" stroke-miterlimit="4"/></g><g clip-path="url(#51bbe1adf9)"><path fill="#013984" d="M 186.707031 568.707031 L 295.847656 568.707031 L 295.847656 677.847656 L 186.707031 677.847656 Z M 186.707031 568.707031 " fill-opacity="1" fill-rule="nonzero"/></g><g clip-path="url(#65b64d94f4)"><path stroke-linecap="butt" transform="matrix(1.110261, 0, 0, 1.110261, 186.708378, 568.711695)" fill="none" stroke-linejoin="miter" d="M -0.0012131 -0.000682622 L 98.297064 -0.000682622 L 98.297064 98.290558 L -0.0012131 98.290558 Z M -0.0012131 -0.000682622 " stroke="#004aad" stroke-width="1.351034" stroke-opacity="1" stroke-miterlimit="4"/></g><g clip-path="url(#01a7b1f5d4)"><path fill="#013984" d="M 295.855469 568.707031 L 404.992188 568.707031 L 404.992188 677.847656 L 295.855469 677.847656 Z M 295.855469 568.707031 " fill-opacity="1" fill-rule="nonzero"/></g><g clip-path="url(#c94364e017)"><path stroke-linecap="butt" transform="matrix(1.110261, 0, 0, 1.110261, 295.854159, 568.711695)" fill="none" stroke-linejoin="miter" d="M 0.00117966 -0.000682622 L 98.295938 -0.000682622 L 98.295938 98.290558 L 0.00117966 98.290558 Z M 0.00117966 -0.000682622 " stroke="#004aad" stroke-width="1.351034" stroke-opacity="1" stroke-miterlimit="4"/></g><g clip-path="url(#e507a49297)"><path fill="#013984" d="M 377.714844 323.792969 L 432.28125 323.792969 L 432.28125 378.363281 L 377.714844 378.363281 Z M 377.714844 323.792969 " fill-opacity="1" fill-rule="nonzero"/></g><g clip-path="url(#1971763f7a)"><path stroke-linecap="butt" transform="matrix(0.75, 0, 0, 0.75, 377.713549, 323.794134)" fill="none" stroke-linejoin="miter" d="M 0.00172594 -0.00155381 L 72.75173 -0.00155381 L 72.75173 72.743242 L 0.00172594 72.743242 Z M 0.00172594 -0.00155381 " stroke="#004aad" stroke-width="2" stroke-opacity="1" stroke-miterlimit="4"/></g></svg>